<?xml version="1.0" encoding="UTF-8" standalone="no"?>
<!-- Created with Inkscape (http://www.inkscape.org/) -->

<svg
   xmlns:dc="http://purl.org/dc/elements/1.1/"
   xmlns:cc="http://creativecommons.org/ns#"
   xmlns:rdf="http://www.w3.org/1999/02/22-rdf-syntax-ns#"
   xmlns:svg="http://www.w3.org/2000/svg"
   xmlns="http://www.w3.org/2000/svg"
   xmlns:sodipodi="http://sodipodi.sourceforge.net/DTD/sodipodi-0.dtd"
   xmlns:inkscape="http://www.inkscape.org/namespaces/inkscape"
   width="48"
   height="48"
   viewBox="0 0 12.7 12.7"
   version="1.1"
   id="svg1756"
   inkscape:version="0.92.4 (5da689c313, 2019-01-14)"
   sodipodi:docname="github.svg">
  <defs
     id="defs1750" />
  <sodipodi:namedview
     id="base"
     pagecolor="#ffffff"
     bordercolor="#666666"
     borderopacity="1.0"
     inkscape:pageopacity="0.0"
     inkscape:pageshadow="2"
     inkscape:zoom="8"
     inkscape:cx="11.938933"
     inkscape:cy="38.866384"
     inkscape:document-units="mm"
     inkscape:current-layer="layer1"
     showgrid="false"
     inkscape:window-width="1920"
     inkscape:window-height="1017"
     inkscape:window-x="-8"
     inkscape:window-y="-8"
     inkscape:window-maximized="1"
     units="px" />
  <metadata
     id="metadata1753">
    <rdf:RDF>
      <cc:Work
         rdf:about="">
        <dc:format>image/svg+xml</dc:format>
        <dc:type
           rdf:resource="http://purl.org/dc/dcmitype/StillImage" />
        <dc:title></dc:title>
      </cc:Work>
    </rdf:RDF>
  </metadata>
  <g
     inkscape:label="Layer 1"
     inkscape:groupmode="layer"
     id="layer1"
     transform="translate(0,-284.3)">
    <path
       d="M 6.3497141,284.29997 C 2.8431039,284.29997 0,287.21489 0,290.81089 c 0,2.87655 1.8193834,5.31665 4.3428182,6.17798 0.3177196,0.0596 0.4335023,-0.1415 0.4335023,-0.31416 0,-0.15429 -0.00541,-0.56396 -0.00862,-1.10713 -1.7663649,0.39329 -2.1390525,-0.87292 -2.1390525,-0.87292 -0.288871,-0.75182 -0.7052206,-0.95206 -0.7052206,-0.95206 -0.5765729,-0.40408 0.04366,-0.39608 0.04366,-0.39608 0.6373888,0.0464 0.9726512,0.67106 0.9726512,0.67106 0.5664374,0.99483 1.4864592,0.70746 1.8482311,0.54118 0.057695,-0.42086 0.2214292,-0.70784 0.4030942,-0.87052 -1.4100509,-0.16427 -2.8926126,-0.72303 -2.8926126,-3.21788 0,-0.71065 0.2475485,-1.29179 0.6537624,-1.74704 -0.065496,-0.16467 -0.2834143,-0.82656 0.061983,-1.72305 0,0 0.5333011,-0.17507 1.7464838,0.66747 0.5064018,-0.14429 1.0498383,-0.21663 1.5897665,-0.21902 0.5391491,0.002 1.0825852,0.0747 1.589767,0.21902 1.2124025,-0.84254 1.7445348,-0.66747 1.7445348,-0.66747 0.3465662,0.89649 0.1286466,1.55838 0.063155,1.72305 0.4069932,0.45525 0.6529812,1.03639 0.6529812,1.74704 0,2.50124 -1.4849003,3.05161 -2.8996303,3.21269 0.2280563,0.20104 0.4311639,0.59834 0.4311639,1.20585 0,0.87013 -0.00784,1.57238 -0.00784,1.78581 0,0.17426 0.1142224,0.37691 0.436621,0.31336 2.5214884,-0.86293 4.3393124,-3.30143 4.3393124,-6.17718 0,-3.596 -2.8434932,-6.51092 -6.3508836,-6.51092"
       style="fill:#1b1817;fill-opacity:1;fill-rule:evenodd;stroke:none;stroke-width:0.39473322"
       id="path24"
       inkscape:connector-curvature="0" />
  </g>
</svg>
