<?xml version="1.0" encoding="UTF-8" standalone="no"?>
<!-- Created with Inkscape (http://www.inkscape.org/) -->

<svg
   xmlns:osb="http://www.openswatchbook.org/uri/2009/osb"
   xmlns:dc="http://purl.org/dc/elements/1.1/"
   xmlns:cc="http://creativecommons.org/ns#"
   xmlns:rdf="http://www.w3.org/1999/02/22-rdf-syntax-ns#"
   xmlns:svg="http://www.w3.org/2000/svg"
   xmlns="http://www.w3.org/2000/svg"
   xmlns:sodipodi="http://sodipodi.sourceforge.net/DTD/sodipodi-0.dtd"
   xmlns:inkscape="http://www.inkscape.org/namespaces/inkscape"
   version="1.1"
   id="svg10"
   width="47.752457"
   height="26.73278"
   viewBox="0 0 47.752457 26.73278"
   sodipodi:docname="wcorp_logo_no_text.svg"
   inkscape:version="0.92.4 (5da689c313, 2019-01-14)">
  <metadata
     id="metadata16">
    <rdf:RDF>
      <cc:Work
         rdf:about="">
        <dc:format>image/svg+xml</dc:format>
        <dc:type
           rdf:resource="http://purl.org/dc/dcmitype/StillImage" />
        <dc:title></dc:title>
      </cc:Work>
    </rdf:RDF>
  </metadata>
  <defs
     id="defs14">
    <linearGradient
       id="linearGradient4583"
       osb:paint="solid">
      <stop
         style="stop-color:#eeeeee;stop-opacity:1;"
         offset="0"
         id="stop4581" />
    </linearGradient>
    <linearGradient
       id="linearGradient4571"
       osb:paint="solid">
      <stop
         style="stop-color:#eeeeee;stop-opacity:1;"
         offset="0"
         id="stop4569" />
    </linearGradient>
  </defs>
  <sodipodi:namedview
     pagecolor="#ffffff"
     bordercolor="#666666"
     borderopacity="1"
     objecttolerance="10"
     gridtolerance="10"
     guidetolerance="10"
     inkscape:pageopacity="0"
     inkscape:pageshadow="2"
     inkscape:window-width="1920"
     inkscape:window-height="1017"
     id="namedview12"
     showgrid="false"
     inkscape:zoom="5.6568543"
     inkscape:cx="32.391884"
     inkscape:cy="19.510001"
     inkscape:window-x="-8"
     inkscape:window-y="-8"
     inkscape:window-maximized="1"
     inkscape:current-layer="svg10"
     fit-margin-top="0"
     fit-margin-left="0"
     fit-margin-right="0"
     fit-margin-bottom="0" />
  <path
     inkscape:connector-curvature="0"
     id="path42"
     d="m 40.434145,23.850862 c 0.567818,-0.08105 0.95835,-0.175893 1.513336,-0.367543 0.57589,-0.198872 0.979874,-0.373257 1.313292,-0.5669 0.110019,-0.06389 0.248723,-0.144259 0.30823,-0.178558 0.196726,-0.113429 0.70656,-0.463827 0.900864,-0.619153 0.439092,-0.351002 1.064926,-0.985243 1.46324,-1.482896 0.283584,-0.35431 0.642309,-0.923703 0.84374,-1.339234 0.07999,-0.165031 0.178451,-0.364635 0.218786,-0.443566 0.116334,-0.227652 0.411067,-1.138903 0.495609,-1.532326 0.08963,-0.417136 0.157323,-0.886614 0.157323,-1.091238 v -0.143037 l -0.697955,0.007 -0.697959,0.007 -0.01783,0.19569 c -0.0098,0.107635 -0.03693,0.28375 -0.06035,0.39138 -0.0234,0.10762 -0.05789,0.277879 -0.07666,0.378332 -0.08817,0.472159 -0.506393,1.501692 -0.816876,2.010963 -0.594306,0.974816 -1.441375,1.830208 -2.381126,2.404528 -0.595856,0.364151 -1.403361,0.697725 -2.063707,0.852504 -0.64916,0.152154 -0.705619,0.157523 -1.641348,0.156016 -0.574199,-9.38e-4 -0.932267,-0.01251 -1.043682,-0.03337 -0.41396,-0.07801 -0.886029,-0.201027 -1.278504,-0.33317 -0.186684,-0.06284 -0.842366,-0.341922 -0.952355,-0.405335 -0.02872,-0.01656 -0.163727,-0.09408 -0.300057,-0.172291 -0.136321,-0.07822 -0.306581,-0.185728 -0.378333,-0.238919 -0.07178,-0.05318 -0.247877,-0.183756 -0.391382,-0.290139 -0.501738,-0.37195 -1.253249,-1.194423 -1.574601,-1.723287 -0.05556,-0.09143 -0.131406,-0.211022 -0.168561,-0.265755 -0.172845,-0.254632 -0.495008,-0.978058 -0.617997,-1.387724 -0.02585,-0.08611 -0.06036,-0.190701 -0.0767,-0.232439 -0.07845,-0.200586 -0.236477,-0.969906 -0.236539,-1.151739 0,-0.05812 -0.0143,-0.119745 -0.03136,-0.136976 -0.04807,-0.04808 -1.367047,-0.04441 -1.385562,0.0039 -0.01981,0.05161 0.0754,0.762025 0.152653,1.138981 0.148132,0.722911 0.496595,1.641789 0.890513,2.348274 0.155179,0.278309 0.525145,0.830898 0.733696,1.095863 0.302076,0.383789 1.163054,1.22402 1.537326,1.500285 0.667846,0.492958 0.904605,0.639128 1.468542,0.906657 0.927357,0.439927 1.696381,0.654514 2.817933,0.786306 0.0502,0.0059 0.467044,0.0076 0.926265,0.0037 0.617203,-0.0052 0.916592,-0.01863 1.148042,-0.05168 z M 28.96908,19.759709 c 0.04454,-0.06097 0.133209,-0.214507 0.197099,-0.341151 l 0.116154,-0.230259 -0.07624,-0.188831 c -0.231258,-0.572755 -0.533615,-1.856362 -0.580752,-2.465507 -0.01385,-0.177661 -0.03236,-0.334922 -0.04134,-0.349472 -0.01087,-0.01751 -0.237702,-0.02041 -0.671311,-0.0086 -0.36023,0.0098 -1.071186,0.02938 -1.579905,0.04347 -0.508718,0.01415 -1.131013,0.04274 -1.382873,0.06367 -0.25186,0.02093 -0.598826,0.05004 -0.771031,0.06468 -0.538339,0.04577 -0.922491,0.0775 -1.422012,0.117435 -0.265487,0.02123 -0.917134,0.07414 -1.448104,0.117571 -0.530969,0.04343 -1.112168,0.09082 -1.291551,0.105312 -0.179383,0.0146 -0.525752,0.04341 -0.769711,0.06426 -0.24396,0.02084 -0.819288,0.06757 -1.278506,0.103808 -0.459217,0.03625 -1.110865,0.0894 -1.448103,0.118136 -0.539583,0.04595 -1.474256,0.122634 -2.1004,0.172288 -0.114804,0.0092 -0.240671,0.03293 -0.2797,0.05292 -0.07539,0.03865 -0.727562,0.305877 -1.964208,0.804867 -0.749091,0.302262 -0.938067,0.391002 -0.914359,0.429361 0.0067,0.01102 1.013623,0.02845 2.237548,0.03903 1.223924,0.01072 2.495367,0.02322 2.825431,0.02809 0.330062,0.005 1.5042,0.01635 2.609193,0.02548 3.331328,0.02752 4.098423,0.03705 5.28362,0.06571 0.624249,0.01508 1.393308,0.0332 1.709021,0.04025 0.392155,0.0088 0.61613,0.02493 0.706924,0.0511 0.129842,0.03741 0.482513,0.226822 1.432616,0.769395 0.258309,0.147522 0.528361,0.301624 0.600113,0.342462 0.07176,0.04084 0.150935,0.07451 0.175958,0.07483 0.02502,3.08e-4 0.08193,-0.04931 0.126431,-0.110317 z m -0.400371,-5.087931 c 0.0143,-0.01793 0.03381,-0.126536 0.04355,-0.24135 0.04471,-0.526936 0.195804,-1.332852 0.349742,-1.865573 0.366287,-1.267572 0.943313,-2.421984 1.721528,-3.4441362 0.992507,-1.303613 2.210788,-2.312422 3.671197,-3.039966 0.811937,-0.404493 1.657558,-0.695196 2.534421,-0.871273 0.910618,-0.182857 1.052415,-0.195834 2.167708,-0.198408 0.548394,-0.0012 1.006306,-0.01161 1.017588,-0.02289 0.03073,-0.03086 -0.224846,-0.246475 -0.605702,-0.510942 -0.186553,-0.129544 -0.926259,-0.627181 -1.64379,-1.105855 -0.717526,-0.478674 -1.367456,-0.913175 -1.44429,-0.965555 -0.07683,-0.05238 -0.200116,-0.112566 -0.273964,-0.133729 -0.07386,-0.02117 -0.780053,-0.150364 -1.569335,-0.287104 -0.789278,-0.136738 -1.846001,-0.320261 -2.348273,-0.40782 -0.50227,-0.08757 -1.036503,-0.18048 -1.187184,-0.206496 -0.150672,-0.02602 -1.089986,-0.19035 -2.08735,-0.365186 -2.051442,-0.35961501 -2.135176,-0.36834201 -3.861607,-0.40248101 -0.452045,-0.0089 -0.85125,-0.02144 -0.887125,-0.02775 -0.03588,-0.0064 -0.499662,-0.02414 -1.030633,-0.03959 -0.53097,-0.01545 -1.094557,-0.03249 -1.252414,-0.03787 -0.157855,-0.0054 -0.697957,-0.0228 -1.200229,-0.03871 -0.50227,-0.01591 -1.400484,-0.04626 -1.996033,-0.06745 -0.595546,-0.0212 -1.476154,-0.04975 -1.956895,-0.06346 -0.480746,-0.01371 -1.179356,-0.03669 -1.552471,-0.05106 -0.373114,-0.0143 -0.913216,-0.03261 -1.200227,-0.04054 -0.287012,-0.0079 -0.832985,-0.02567 -1.213276,-0.03938 -2.958195,-0.106697 -3.1295388,-0.110883 -3.253983,-0.07954 -0.068343,0.01721 -0.9052107,0.367071 -1.8597059,0.777471 C 6.6954609,1.3055358 5.6327167,1.7610778 5.2883035,1.9074518 c -0.3444137,0.146359 -0.8434219,0.360025 -1.1089076,0.474783 -0.2654853,0.114755 -1.1813128,0.508576 -2.0351715,0.875155 -2.04139768,0.876416 -2.08085318,0.894962 -2.02426161,0.951553 0.0291489,0.02916 0.57896333,-0.05268 3.56368591,-0.530439 2.2824541,-0.365341 2.7655133,-0.442753 4.4747685,-0.717073 0.9040857,-0.145093 1.7377233,-0.270107 1.8525278,-0.277795 0.116596,-0.0079 0.387255,0.0045 0.613161,0.02791 0.222434,0.02304 0.856467,0.08366 1.408965,0.134728 0.552498,0.05105 1.36265,0.12722 1.800344,0.16925 0.437693,0.04202 1.241975,0.11827 1.787297,0.169433 0.54532,0.05117 1.290899,0.121859 1.656839,0.157085 0.365939,0.03522 1.22306,0.117301 1.90471,0.182385 0.681653,0.0651 1.597482,0.153046 2.035172,0.195465 0.741115,0.07181 1.820853,0.173681 2.491781,0.235065 0.680628,0.06225 1.391167,0.135993 1.49412,0.155039 0.223632,0.04134 0.326416,0.143395 0.750076,0.744701 0.222594,0.315926 1.737192,2.44713 2.224839,3.130584 0.283166,0.396874 0.295915,0.460565 0.102005,0.509667 -0.185875,0.04706 -1.0084,0.342326 -2.75765,0.989902 -0.236784,0.08768 -0.489223,0.166196 -0.560974,0.174528 -0.113951,0.01326 -0.555797,-0.02997 -1.239368,-0.121173 -0.107636,-0.01445 -0.389424,-0.04927 -0.626208,-0.07758 -0.236786,-0.02831 -0.671214,-0.08081 -0.965401,-0.116646 -0.294185,-0.03585 -0.781453,-0.09483 -1.082816,-0.131078 -0.301361,-0.03625 -0.835595,-0.100874 -1.187183,-0.143619 -0.351594,-0.04274 -1.373093,-0.166827 -2.270001,-0.275765 -1.735141,-0.210747 -2.757286,-0.334983 -3.631472,-0.441387 -0.603188,-0.07342 -0.593624,-0.07407 -1.120341,0.074 -0.177688,0.04996 -0.657699,0.180483 -1.06669,0.290075 -0.408991,0.109586 -0.931482,0.249843 -1.161092,0.311666 -0.229609,0.06183 -0.6464277,0.173434 -0.9262631,0.248016 -0.2798366,0.07459 -0.784716,0.21033 -1.121954,0.30166 -0.3372387,0.09133 -1.1239106,0.30266 -1.7481603,0.4696262 -1.8292852,0.489269 -2.5046169,0.683617 -2.504762,0.720829 -1.543e-4,0.03883 0.1379785,0.0435 0.6216467,0.02106 0.2823087,-0.01326 1.2001582,-0.04181 2.0396667,-0.06379 1.6381516,-0.04292 2.8490397,-0.07673 4.200803,-0.117331 0.466393,-0.01415 1.235454,-0.03293 1.709023,-0.04203 l 0.861034,-0.01656 1.669883,0.422551 c 0.918437,0.232406 2.474168,0.626405 3.457182,0.875556 2.705318,0.685682 4.008954,1.015649 5.714135,1.446328 0.853861,0.215655 1.589787,0.409326 1.635399,0.430373 0.05092,0.02351 0.110272,0.08662 0.153814,0.163519 0.198511,0.35075 0.438007,0.714956 0.501119,0.762057 0.06767,0.0505 0.108395,0.05301 0.870124,0.05381 0.608947,6.62e-4 0.805277,-0.007 0.824964,-0.03178 z M 47.629338,14.45652 c -0.01507,-0.444709 -0.179447,-1.195979 -0.396367,-1.811518 -0.451234,-1.280395 -1.042224,-2.220266 -1.995903,-3.1741512 -0.51101,-0.511118 -0.859153,-0.808031 -1.293556,-1.103215 -0.554823,-0.37701 -1.276617,-0.742306 -1.858415,-0.940539 -0.20485,-0.06979 -0.423656,-0.145792 -0.486248,-0.168864 -0.135278,-0.04988 -0.766628,-0.181327 -1.151658,-0.239773 -0.367146,-0.05573 -1.693367,-0.08066 -2.094345,-0.03935 -0.628516,0.06474 -1.193165,0.170233 -1.532436,0.286334 -0.07892,0.02702 -0.260918,0.08741 -0.404423,0.134191 -0.381829,0.124525 -0.99297,0.402023 -1.449459,0.658167 -0.411482,0.230895 -1.083205,0.71533 -1.157176,0.834538 -0.02416,0.03893 0.0422,0.116155 0.453966,0.528363 0.265245,0.265528 0.489566,0.48278 0.498502,0.48278 0.0089,0 0.0581,-0.03229 0.109245,-0.07176 0.659575,-0.508895 1.514843,-0.951738 2.262449,-1.171458 0.872012,-0.256282 1.339581,-0.312839 2.365852,-0.286174 0.669156,0.01738 0.848434,0.04072 1.365296,0.177748 0.165031,0.04376 0.364638,0.09426 0.443564,0.112252 0.163612,0.03728 0.539429,0.174467 0.677108,0.247167 0.05094,0.02692 0.160444,0.07865 0.243354,0.115023 0.208823,0.0916 0.787412,0.419821 0.945109,0.536143 0.07176,0.05292 0.242005,0.179219 0.378338,0.280647 0.136321,0.101425 0.429864,0.3649832 0.652294,0.5856782 0.807529,0.801204 1.358316,1.694766 1.723322,2.795804 0.02751,0.08299 0.06209,0.173437 0.07682,0.200984 0.03116,0.05826 0.112044,0.433116 0.185822,0.861392 0.02845,0.165033 0.05668,0.314932 0.06284,0.333109 0.0088,0.0258 0.161759,0.03151 0.696715,0.02609 l 0.685566,-0.007 z"
     style="fill:#79848f;stroke-width:0.02609193"
     sodipodi:nodetypes="sccccccccscccccccscccsscssccccccccccscccscccccccscsssscsssssccssccscscccccssscccsccsscsscssssssssssssssssccssssscsccccscsscssssssssssccssscsssccscccccsccccccscsscsscscccccccccscc" />
  <path
     inkscape:connector-curvature="0"
     id="path40"
     d="m 40.430787,23.860872 c 0.575741,-0.07872 0.92474,-0.161367 1.486456,-0.351966 0.475226,-0.16125 1.056073,-0.408408 1.282646,-0.545785 0.0574,-0.03479 0.170606,-0.09859 0.251576,-0.141802 0.178924,-0.09542 0.750456,-0.479615 1.000841,-0.672765 0.55156,-0.425484 1.567843,-1.511457 1.753308,-1.873536 0.02204,-0.04304 0.06125,-0.101752 0.0871,-0.130468 0.08613,-0.09565 0.423269,-0.675089 0.538916,-0.926262 0.06276,-0.136321 0.142145,-0.30071 0.176415,-0.36529 0.105908,-0.199636 0.381141,-1.037239 0.471569,-1.435055 0.07912,-0.348038 0.140074,-0.731785 0.181075,-1.140002 0.0146,-0.143574 0.01057,-0.164631 -0.03536,-0.189168 -0.05513,-0.0295 -1.270487,-0.04013 -1.344435,-0.01191 -0.02823,0.01087 -0.04154,0.05 -0.04215,0.123945 -3.84e-4,0.05946 -0.03009,0.248995 -0.06585,0.421203 -0.03575,0.172206 -0.07744,0.383549 -0.09266,0.469653 -0.01519,0.0861 -0.04878,0.215258 -0.07457,0.287011 -0.02579,0.07178 -0.08562,0.247875 -0.132969,0.391381 -0.101813,0.308631 -0.431836,1.035688 -0.562566,1.239365 -0.481008,0.749399 -0.705578,1.032541 -1.200297,1.513335 -0.522961,0.508247 -1.219084,1.001259 -1.757948,1.245028 -0.107622,0.04869 -0.236784,0.110257 -0.287009,0.136827 -0.24808,0.131213 -0.858693,0.331397 -1.356977,0.444862 -0.465628,0.106028 -0.910698,0.136767 -1.796841,0.124138 -0.702214,-0.01013 -0.730277,-0.01251 -1.086125,-0.09485 -0.416148,-0.09633 -0.625812,-0.156149 -0.978446,-0.279161 -0.23026,-0.08034 -0.780738,-0.313858 -0.900173,-0.381892 -0.372222,-0.212029 -0.649956,-0.381629 -0.756497,-0.461967 -0.07185,-0.05419 -0.224562,-0.167436 -0.339367,-0.251686 -0.284785,-0.208994 -1.002401,-0.933048 -1.236552,-1.247651 -0.535224,-0.719111 -0.885635,-1.39366 -1.140308,-2.195084 -0.119267,-0.375298 -0.246163,-0.934391 -0.268331,-1.182128 -0.01206,-0.13355 -0.03571,-0.256835 -0.05281,-0.273967 -0.0389,-0.03897 -1.326388,-0.05772 -1.384037,-0.02018 -0.0329,0.02144 -0.03201,0.07537 0.0071,0.416668 0.101336,0.884379 0.396353,1.87829 0.80244,2.7034 0.191415,0.388927 0.293593,0.559596 0.72278,1.207276 0.382905,0.577832 1.422082,1.60382 2.008023,1.98253 0.08668,0.056 0.205082,0.139478 0.26314,0.185453 0.187612,0.148594 0.566357,0.351856 1.296154,0.695617 0.490761,0.231169 1.314927,0.461103 2.098976,0.585601 0.467158,0.07418 1.918703,0.07368 2.463757,-8.28e-4 z M 28.94037,19.814511 c 0.04128,-0.04522 0.137467,-0.202825 0.213728,-0.350282 0.133135,-0.2574 0.137275,-0.271557 0.103794,-0.354856 -0.260303,-0.647855 -0.582672,-1.988899 -0.630743,-2.623849 -0.01236,-0.161251 -0.03064,-0.306845 -0.04095,-0.32354 -0.014,-0.02242 -0.162891,-0.02591 -0.569259,-0.01355 -0.302771,0.0094 -0.967312,0.0294 -1.476758,0.04459 -0.923772,0.02754 -1.265678,0.05099 -3.979022,0.272724 -2.295007,0.187552 -2.643951,0.216125 -3.965973,0.324759 -0.688828,0.0566 -1.769034,0.145004 -2.40046,0.196414 -2.110699,0.171906 -1.960552,0.154714 -2.165631,0.24793 -0.100452,0.04567 -0.628815,0.263174 -1.174137,0.483364 -0.545323,0.22019 -1.108907,0.448551 -1.252413,0.507471 -0.261732,0.107457 -0.404546,0.1922 -0.374514,0.222231 0.0088,0.0089 0.836438,0.02112 1.839091,0.02728 1.002654,0.0062 2.675161,0.0238 3.716687,0.03923 1.041522,0.0154 3.019942,0.03945 4.396491,0.05343 1.376546,0.01415 2.678933,0.02953 2.894192,0.03455 0.21526,0.0051 0.836448,0.01794 1.380419,0.02873 0.621327,0.01236 1.040454,0.03154 1.127331,0.05174 0.151375,0.03518 0.503175,0.222379 1.536501,0.817556 0.373117,0.214908 0.693732,0.39195 0.712477,0.393427 0.01874,0.0015 0.06785,-0.03429 0.10914,-0.07949 z m -0.349835,-5.147716 c 0.02135,-0.02925 0.03708,-0.11194 0.03717,-0.195691 2.45e-4,-0.176152 0.08001,-0.728487 0.171738,-1.188722 0.244331,-1.225848 0.821784,-2.594706 1.556193,-3.6889762 0.165093,-0.245989 0.494071,-0.678623 0.726478,-0.955389 0.225602,-0.268661 0.990065,-1.020815 1.276568,-1.256013 0.273466,-0.224498 0.838899,-0.627572 1.186842,-0.846047 0.955391,-0.599898 2.160667,-1.074943 3.330946,-1.312849 0.868446,-0.176542 0.907297,-0.18017 2.107418,-0.196662 0.759769,-0.01057 1.10971,-0.02407 1.116172,-0.04351 0.01681,-0.05053 -0.624131,-0.546399 -1.006177,-0.778442 -0.163271,-0.09916 -0.876957,-0.574784 -2.198516,-1.465143 -0.367758,-0.247766 -0.71413,-0.463221 -0.769713,-0.478785 -0.0908,-0.02542 -1.239174,-0.229725 -2.501516,-0.445033 -0.258311,-0.04406 -0.663389,-0.114754 -0.900173,-0.157103 -0.23678,-0.04234 -0.976488,-0.171934 -1.643788,-0.287958 -0.667303,-0.116021 -1.812173,-0.315232 -2.544166,-0.44268101 -0.73199,-0.127444 -1.430602,-0.243396 -1.552469,-0.257658 -0.233603,-0.02733 -0.391569,-0.03382 -2.308934,-0.09505 -0.660126,-0.02108 -1.552471,-0.05032 -1.982987,-0.06498 -0.430517,-0.0146 -1.493113,-0.04973 -2.361323,-0.07789 -0.868209,-0.02817 -1.936673,-0.06328 -2.374365,-0.07806 -0.84062,-0.02833 -2.619278,-0.08674 -3.992068,-0.131093 -1.192203,-0.03852 -2.244607,-0.07369 -3.202821,-0.107055 -0.462824,-0.01611 -0.9500915,-0.02402 -1.0828154,-0.01757 l -0.241317,0.01176 -0.8218959,0.354544 C 6.5017202,1.3763348 5.6163594,1.7568418 5.1708833,1.9449128 c -0.8672019,0.366114 -4.59947146,1.974581 -4.83353227,2.083069 -0.20837595,0.09658 -0.27237696,0.157147 -0.20806311,0.196897 0.0368201,0.022753 1.32047778,-0.172483 4.07619368,-0.619969 0.1363327,-0.02213 0.4357354,-0.06992 0.6653446,-0.106205 0.2296092,-0.03628 0.7462291,-0.118761 1.1480455,-0.183283 0.4018157,-0.06453 0.8773414,-0.140639 1.0567239,-0.169126 0.1793819,-0.02851 0.836899,-0.133535 1.4611486,-0.233419 1.6120128,-0.257944 1.5095628,-0.24627 1.8544728,-0.211289 0.163961,0.01664 0.656225,0.06408 1.093916,0.105417 0.437693,0.04134 1.171529,0.11127 1.630747,0.155388 0.935812,0.08991 2.361571,0.225588 3.574595,0.340173 0.444867,0.04203 1.184575,0.112193 1.643794,0.155911 0.459218,0.04373 1.151958,0.108827 1.539424,0.144631 2.230484,0.206161 5.112452,0.485488 5.264862,0.510278 0.141325,0.023 0.202439,0.04895 0.303665,0.128963 0.131986,0.104315 0.181316,0.169768 1.032085,1.369031 0.285052,0.401816 0.678447,0.953659 0.874213,1.22632 1.053307,1.467041 1.088245,1.521592 1.017267,1.588249 -0.02106,0.01979 -0.243776,0.106742 -0.494913,0.193235 -0.427939,0.147387 -0.705636,0.247584 -1.604655,0.578943 -1.358052,0.500548 -1.328855,0.492268 -1.583995,0.44908 -0.0903,-0.01528 -0.269835,-0.04005 -0.39899,-0.05503 -0.590123,-0.06844 -0.928222,-0.10844 -1.108909,-0.131153 -0.107637,-0.0137 -0.301363,-0.03728 -0.430517,-0.05275 -0.129171,-0.01546 -0.416817,-0.05158 -0.639253,-0.08023 -0.222432,-0.02866 -0.510095,-0.06385 -0.639251,-0.07819 -0.39701,-0.04413 -0.631485,-0.07219 -1.187186,-0.142129 -0.501061,-0.06308 -0.630499,-0.07866 -1.180659,-0.142307 -0.118403,-0.01385 -0.362025,-0.04326 -0.541408,-0.06568 -0.630356,-0.0788 -1.725398,-0.212174 -2.465688,-0.300283 -0.243958,-0.02902 -0.531623,-0.06419 -0.639252,-0.07809 -0.107622,-0.014 -0.301362,-0.03779 -0.430517,-0.05304 -0.251028,-0.02964 -0.736777,-0.08987 -1.056723,-0.131018 -0.549735,-0.07073 -0.602986,-0.06767 -1.06977,0.06121 -0.401725,0.110928 -1.147014,0.312234 -2.296092,0.620166 -0.265484,0.07115 -0.6294684,0.169426 -0.8088497,0.2184 -0.1793814,0.04899 -0.3965979,0.107219 -0.4827008,0.129425 -0.086104,0.02221 -0.4148622,0.110228 -0.7305751,0.195631 -0.3157118,0.08538 -1.0847718,0.291778 -1.7090214,0.4586542 -2.0783194,0.555579 -2.6022741,0.708788 -2.5890999,0.757084 0.00907,0.03329 0.198661,0.02968 4.2328918,-0.08016 5.5923331,-0.152248 5.1921681,-0.149036 5.5967211,-0.04493 0.172208,0.0443 0.947138,0.240891 1.722069,0.43684 0.774931,0.195952 1.819914,0.460575 2.322184,0.588052 1.660644,0.421479 2.885084,0.731855 3.757238,0.952401 4.548598,1.150227 4.300784,1.085106 4.37092,1.148583 0.02804,0.02538 0.09358,0.123705 0.145645,0.218521 0.195546,0.356122 0.401659,0.648487 0.487406,0.691368 0.07249,0.03625 0.190305,0.04108 0.862333,0.03546 0.736311,-0.0062 0.780366,-0.0094 0.815372,-0.05716 z m 19.057374,-0.03945 c 0.03423,-0.06396 -0.04105,-0.622042 -0.152054,-1.12728 -0.07854,-0.357506 -0.343056,-1.174243 -0.445026,-1.374123 -0.03086,-0.06048 -0.101976,-0.215745 -0.158056,-0.345037 C 46.70416,11.34603 46.376547,10.812241 45.932676,10.21657 45.676204,9.8723918 44.863207,9.0443698 44.522298,8.7801278 c -0.281086,-0.21787 -0.716446,-0.526981 -0.8658,-0.614724 -0.06458,-0.03793 -0.18199,-0.107308 -0.260914,-0.154155 -0.589107,-0.349647 -1.660443,-0.757452 -2.367106,-0.901044 -0.718816,-0.146062 -1.208451,-0.188797 -1.977206,-0.17256 -1.411144,0.02982 -2.439392,0.278145 -3.652872,0.882237 -0.335064,0.166803 -0.628022,0.329298 -0.758202,0.420556 -0.05655,0.03966 -0.169413,0.115976 -0.250791,0.169599 -0.311105,0.205031 -0.595661,0.447898 -0.595661,0.508393 0,0.04065 0.139746,0.198141 0.462859,0.521641 0.254577,0.254869 0.478769,0.463396 0.49821,0.463396 0.01943,0 0.136201,-0.07338 0.259475,-0.163074 0.448467,-0.326299 0.795607,-0.524123 1.45388,-0.828519 0.316732,-0.146448 0.862613,-0.310635 1.526917,-0.459221 0.157348,-0.03519 0.374571,-0.04532 1.121416,-0.05233 1.03299,-0.0098 1.13349,-2.44e-4 1.748159,0.163297 0.193735,0.05155 0.400889,0.103495 0.460349,0.115366 0.113384,0.02268 0.549748,0.186311 0.661605,0.248092 0.0359,0.01981 0.134669,0.06581 0.219513,0.10223 0.18934,0.08124 0.715064,0.372893 0.881111,0.48881 0.515985,0.360203 0.674336,0.4912952 1.080085,0.8941392 0.62547,0.620992 1.04655,1.206077 1.405758,1.953297 0.309972,0.644808 0.485752,1.208101 0.615319,1.971819 0.02785,0.164086 0.06542,0.307737 0.08352,0.319229 0.01809,0.01161 0.328966,0.02106 0.690813,0.0213 0.626105,4.08e-4 0.65922,-0.0021 0.685172,-0.05053 z"
     style="fill:#6d7985;stroke-width:0.02609193"
     sodipodi:nodetypes="cccccccccccccccssccccccscccccsccccsscccscccccccssssscsccsccscccccccsccccsscscccssssssssssscssssssscscsssssscccccssscccsssscccsssscsscssssscscscccccscscsssccscscccssccccsccccc" />
  <path
     inkscape:connector-curvature="0"
     id="path36"
     d="m 24.635474,26.732781 c -16.6988426,0 -8.349421,0 0,0 z m 15.785623,-2.856307 c 0.889915,-0.131943 1.736246,-0.388767 2.464074,-0.747728 1.154938,-0.569608 1.944352,-1.182222 2.817183,-2.186235 0.437723,-0.503509 0.83854,-1.103536 1.099488,-1.645933 0.07939,-0.165031 0.177686,-0.364635 0.218419,-0.443566 0.117764,-0.228191 0.415718,-1.147618 0.497852,-1.53625 0.09662,-0.457166 0.161445,-0.930369 0.151407,-1.105037 l -0.008,-0.137497 -0.688232,-0.007 c -0.485905,-0.005 -0.698764,0.0018 -0.724054,0.02277 -0.02174,0.01805 -0.03595,0.08229 -0.03616,0.163513 -2.46e-4,0.07359 -0.02407,0.245332 -0.05307,0.381663 -0.029,0.136321 -0.0651,0.31832 -0.08022,0.404423 -0.02844,0.161975 -0.278781,0.935086 -0.36461,1.125988 -0.409273,0.910339 -0.783904,1.481502 -1.387024,2.114651 -0.409415,0.429795 -0.545044,0.553554 -0.880493,0.803428 -0.903018,0.672662 -1.963518,1.12654 -3.117984,1.33445 -0.217404,0.03918 -0.404517,0.04687 -1.121952,0.04631 -0.921088,-7.17e-4 -1.026153,-0.01027 -1.569388,-0.143172 -0.478142,-0.116945 -0.859119,-0.244035 -1.256648,-0.419178 -0.653697,-0.288007 -0.897402,-0.433666 -1.557411,-0.93084 -0.170412,-0.128367 -0.66036,-0.595407 -0.90831,-0.865836 -0.181333,-0.197776 -0.482948,-0.597851 -0.61962,-0.821899 -0.05253,-0.0861 -0.125896,-0.201332 -0.163053,-0.256065 -0.03716,-0.05473 -0.151606,-0.27195 -0.254332,-0.482701 -0.167676,-0.343975 -0.264112,-0.591828 -0.438447,-1.126806 -0.08967,-0.275173 -0.215838,-0.858864 -0.231237,-1.069768 -0.02281,-0.312655 0.04427,-0.287012 -0.750861,-0.287012 -0.630557,0 -0.691582,0.0039 -0.712732,0.04567 -0.02731,0.05395 0.06604,0.802167 0.148953,1.193708 0.149799,0.707352 0.498552,1.621598 0.880857,2.309137 0.135263,0.24327 0.511896,0.810679 0.710077,1.069771 0.09329,0.121978 0.416977,0.468668 0.719285,0.77042 0.522937,0.521973 0.838223,0.793164 1.161165,0.998761 0.07984,0.05082 0.186246,0.124972 0.236471,0.164741 0.170725,0.135233 0.498381,0.310705 1.23937,0.663749 0.100443,0.04785 0.347021,0.141935 0.547931,0.209057 0.200906,0.06713 0.382898,0.131094 0.404423,0.142159 0.116051,0.0597 1.130958,0.250187 1.578562,0.296296 0.0574,0.0059 0.474223,0.0076 0.926265,0.0036 0.608074,-0.0053 0.899958,-0.0188 1.121956,-0.05171 z m -11.461772,-4.06665 c 0.04194,-0.04777 0.137929,-0.206911 0.213298,-0.353628 l 0.137022,-0.26676 -0.0774,-0.187778 c -0.239001,-0.579814 -0.529691,-1.816005 -0.581016,-2.470828 -0.01415,-0.179382 -0.03132,-0.34261 -0.03838,-0.36273 -0.01072,-0.03071 -0.118344,-0.03373 -0.670928,-0.01884 -2.5692,0.06932 -2.525644,0.06739 -3.580416,0.159091 -0.243959,0.0212 -0.666648,0.05642 -0.939309,0.07825 -0.272658,0.02183 -1.071074,0.08665 -1.774253,0.144036 -1.34135,0.109453 -1.462326,0.119372 -2.700516,0.221447 -0.42334,0.03489 -0.992795,0.08158 -1.265457,0.103719 -0.536622,0.04357 -2.922249,0.238043 -3.259702,0.265729 -0.14127,0.01161 -0.257195,0.03971 -0.365286,0.08858 -0.08709,0.03939 -0.586903,0.244531 -1.1107,0.455858 -0.523795,0.211331 -1.028674,0.416153 -1.121953,0.455165 -0.09328,0.03903 -0.249549,0.103838 -0.347266,0.144081 -0.202759,0.08346 -0.295242,0.148921 -0.269425,0.190698 0.01261,0.0204 0.411178,0.02937 1.363938,0.03062 0.740367,9.92e-4 1.353573,0.0062 1.362684,0.01161 0.0091,0.0053 1.225843,0.01804 2.703856,0.02816 1.47801,0.01027 2.69481,0.02304 2.703997,0.02872 0.0092,0.0058 0.613945,0.01072 1.343912,0.01102 0.729964,3.76e-4 1.832086,0.01251 2.449161,0.02666 0.617074,0.01445 1.626832,0.03726 2.243906,0.05104 0.864765,0.01931 1.15186,0.03406 1.252414,0.06426 0.131287,0.03947 0.726212,0.363504 1.643791,0.895376 0.272659,0.158042 0.52095,0.288704 0.551751,0.29035 0.03335,0.0018 0.08689,-0.03217 0.13227,-0.08387 z M 28.59399,14.697872 c 0.01385,-0.01794 0.03856,-0.179382 0.05511,-0.358764 0.0759,-0.823138 0.288305,-1.74289 0.575726,-2.492936 0.302477,-0.789345 0.369329,-0.93471 0.713423,-1.551316 0.236103,-0.4230882 0.445701,-0.7421262 0.76279,-1.1610912 0.360046,-0.475722 0.48835,-0.62106 0.967407,-1.095862 0.591054,-0.585798 0.894904,-0.833488 1.615882,-1.317212 0.971608,-0.651877 2.178439,-1.16905 3.344897,-1.433413 0.946335,-0.214478 1.565072,-0.27514 2.627607,-0.25761 0.419492,0.007 0.789146,0.0029 0.821458,-0.0092 0.07828,-0.02897 0.05743,-0.05938 -0.169473,-0.246856 -0.222292,-0.183675 -0.407305,-0.310597 -2.018619,-1.38476 -0.68165,-0.454418 -1.33074,-0.888558 -1.44242,-0.964759 -0.111688,-0.0762 -0.264321,-0.156032 -0.339198,-0.177402 -0.07489,-0.02137 -0.582312,-0.115917 -1.127631,-0.210089 -1.251618,-0.216095 -2.7116,-0.469475 -3.770297,-0.654263 -0.452046,-0.07889 -1.021502,-0.17809 -1.265461,-0.220424 -0.243958,-0.04234 -0.543362,-0.09485 -0.665346,-0.116691 -1.743554,-0.31230001 -2.315869,-0.39928201 -2.739653,-0.41638101 -0.208082,-0.0085 -0.924304,-0.03278 -1.591608,-0.05416 -0.667299,-0.02138 -1.735767,-0.05627 -2.374364,-0.0775 -1.653677,-0.055 -4.060058,-0.134579 -5.909827,-0.195414 -2.776435,-0.09131 -3.945942,-0.130349 -4.683508,-0.156353 -2.164113,-0.07628 -2.312253,-0.07954 -2.4464862,-0.05387 -0.075542,0.01445 -0.9620166,0.380703 -1.9699423,0.813892 C 6.5565313,1.3386268 5.4911669,1.7952998 5.1969805,1.9202608 4.9027935,2.0452178 4.44488,2.2413358 4.1793943,2.3560688 3.9139089,2.4707938 2.992211,2.8671118 2.1311767,3.2367668 c -1.80133634,0.773338 -1.96968733,0.849196 -2.01971504,0.910103 -0.07123489,0.08672 -0.001496,0.105417 0.26370093,0.07067 C 0.63717123,4.1832198 2.5781472,3.8809078 3.4970391,3.7313238 3.807757,3.6807338 4.4259633,3.5815638 4.8708309,3.5109278 5.3156963,3.4402718 6.272618,3.2875688 6.9973218,3.1715718 7.7220255,3.0555658 8.708441,2.8985798 9.189355,2.8226968 l 0.874391,-0.137974 0.625896,0.05941 c 0.344243,0.03269 1.447792,0.136588 2.452332,0.230937 1.004542,0.09432 2.125842,0.200493 2.491781,0.235903 0.365939,0.0354 0.97649,0.09381 1.356782,0.129797 0.380287,0.03597 1.48985,0.14213 2.465687,0.235937 0.975839,0.09379 2.091267,0.199569 2.478734,0.235066 0.387465,0.03549 0.816025,0.0762 0.952357,0.09047 0.136321,0.0143 0.517925,0.04979 0.847989,0.07895 0.804694,0.07115 1.302759,0.12463 1.463585,0.157187 0.181231,0.03669 0.358193,0.199486 0.626275,0.576115 0.116184,0.163226 0.414955,0.584443 0.663943,0.936031 0.248984,0.351589 0.600564,0.844725 0.781282,1.095861 0.180723,0.251135 0.439441,0.615118 0.574934,0.80885 0.135487,0.193732 0.308212,0.4386 0.383825,0.54415 0.135635,0.189321 0.168626,0.294463 0.104851,0.334054 -0.01793,0.01117 -0.208735,0.08108 -0.423995,0.155381 -0.362944,0.125314 -1.361336,0.489579 -2.387413,0.871049 -0.241082,0.08963 -0.493659,0.166327 -0.574022,0.17431 -0.125211,0.01251 -0.52555,-0.02669 -1.252413,-0.12238 -0.107635,-0.0143 -0.442258,-0.05491 -0.743619,-0.09054 -0.301362,-0.03561 -0.635993,-0.07638 -0.743622,-0.09059 -0.107637,-0.0143 -0.29549,-0.03773 -0.41747,-0.05225 -0.121993,-0.0146 -0.462483,-0.05565 -0.756666,-0.09134 -1.353732,-0.164328 -1.852072,-0.224686 -2.36132,-0.28599 -0.301362,-0.03628 -0.888431,-0.107352 -1.3046,-0.15794 -1.523196,-0.185188 -2.491287,-0.302734 -3.02666,-0.367522 -0.301362,-0.03648 -0.632538,-0.07729 -0.735948,-0.0907 -0.209102,-0.02713 -0.25745,-0.0213 -0.594741,0.07161 -0.129155,0.03556 -0.446171,0.121293 -0.704482,0.190477 -0.477488,0.127906 -1.001566,0.26873 -2.217815,0.595983 -0.3731154,0.100399 -0.7899337,0.212116 -0.9262642,0.248274 -0.1363282,0.03615 -0.8408132,0.225741 -1.5655164,0.421299 -0.7247038,0.1955592 -1.5113763,0.4065202 -1.7481608,0.4688012 -0.8302682,0.218389 -1.4688299,0.405321 -1.5705636,0.459768 -0.029013,0.01552 -0.042676,0.03809 -0.030369,0.05016 0.036763,0.03607 0.1756072,0.03923 0.7920824,0.01801 0.3228879,-0.01132 1.2034908,-0.03734 1.9568954,-0.05831 2.9181547,-0.08117 3.3525692,-0.09346 4.1486182,-0.117347 0.452044,-0.0137 1.226974,-0.03178 1.722068,-0.04046 l 0.900173,-0.01579 0.508793,0.130616 c 0.279836,0.07187 1.095861,0.278937 1.81339,0.460201 0.717527,0.181263 1.66858,0.422173 2.113446,0.535354 0.444868,0.113191 1.366569,0.346743 2.04822,0.519025 0.68165,0.172282 1.615091,0.40843 2.074309,0.52477 2.476247,0.627344 3.615558,0.916395 3.743549,0.949772 0.177349,0.04623 0.241205,0.116095 0.470298,0.514441 0.09328,0.162192 0.217488,0.345294 0.276017,0.406898 l 0.106429,0.112014 h 0.823172 c 0.6278,0 0.829115,-0.0077 0.848198,-0.03261 z m 19.072003,-0.06072 c 0.0245,-0.06384 -0.06368,-0.683775 -0.163021,-1.146035 -0.152041,-0.707574 -0.540831,-1.688997 -0.935445,-2.361322 -0.09687,-0.165032 -0.196233,-0.32354 -0.220827,-0.35224 -0.02458,-0.0287 -0.07836,-0.105014 -0.119491,-0.169599 -0.344415,-0.540817 -1.215985,-1.4772392 -1.724243,-1.8525302 -0.06803,-0.05022 -0.165955,-0.127458 -0.217631,-0.171648 -0.116915,-0.09997 -0.581337,-0.408918 -0.809886,-0.538779 -0.78063,-0.443545 -1.679413,-0.791526 -2.441189,-0.945152 -0.691956,-0.139537 -0.906189,-0.157853 -1.839481,-0.157192 -0.771152,5.51e-4 -0.919033,0.0076 -1.255802,0.05889 -1.084648,0.16557 -2.032087,0.495914 -2.997185,1.045034 -0.470509,0.267707 -1.174138,0.786729 -1.174138,0.866085 0,0.02215 0.221905,0.261048 0.49312,0.530904 0.43341,0.431234 0.498969,0.487041 0.541406,0.460886 0.02656,-0.01637 0.108232,-0.07318 0.181495,-0.126252 0.909121,-0.6586 1.701618,-1.0152 2.823059,-1.270285 0.494179,-0.112416 1.29937,-0.146954 2.146166,-0.09209 0.32523,0.02106 0.462048,0.04542 0.952361,0.169422 1.007066,0.254713 1.644733,0.554876 2.51746,1.185025 0.26503,0.191363 0.935863,0.8095992 1.131282,1.0425832 0.362555,0.43224 0.774576,1.068356 1.012358,1.562982 0.141266,0.293863 0.191777,0.42191 0.334768,0.848703 0.02783,0.08298 0.06279,0.173774 0.07776,0.201737 0.02814,0.05254 0.191579,0.825886 0.223264,1.05633 0.0098,0.07178 0.02962,0.145153 0.04394,0.163075 0.01961,0.02461 0.195065,0.03261 0.715053,0.03261 0.603379,0 0.691025,-0.0052 0.704849,-0.04116 z m -15.523758,-0.01756 c 0.0137,-0.01794 0.0392,-0.138897 0.05679,-0.268797 0.06495,-0.478817 0.324625,-1.391288 0.497124,-1.746805 0.07019,-0.144661 0.150494,-0.325603 0.182212,-0.410536 0.03062,-0.08206 0.502616,-0.809409 0.588615,-0.907108 0.07563,-0.08591 0.222388,-0.331366 0.222388,-0.371929 0,-0.04676 -0.892551,-0.9327642 -0.939031,-0.9321332 -0.07198,9.37e-4 -0.64739,0.8188612 -0.92387,1.3131822 -0.523546,0.936054 -0.877393,2.004738 -0.999129,3.017545 -0.02385,0.198417 -0.01608,0.291816 0.02651,0.318898 0.01686,0.01072 0.308074,0.01967 0.647143,0.0199 0.462981,3.23e-4 0.622651,-0.0077 0.641252,-0.03222 z"
     style="fill:#2ecc71;fill-opacity:1;stroke-width:0.02609193"
     sodipodi:nodetypes="ccccscccccsccccccsccsccccscccsccccccccccccccccsscsssssscsssccccsccsscccccscccsssscccccssscsssssssssscssssscsssssssssccccccsssssscssssccsssssccssssccssssccccscccccccccssssscccssssccccccsccscccsccscsc" />
  <path
     style="fill:#eeeeee;fill-opacity:1;stroke:#eeeeee;stroke-width:0.19568959;stroke-linecap:square;stroke-linejoin:round;stroke-miterlimit:4;stroke-dasharray:none;stroke-opacity:1"
     d="m 26.843757,14.626755 c -0.0476,-0.05013 -0.189263,-0.254943 -0.314794,-0.455112 -0.137646,-0.21949 -0.266947,-0.38639 -0.325761,-0.420496 -0.05363,-0.0311 -2.872354,-0.760203 -6.263814,-1.620225 l -6.166295,-1.563677 -1.027716,0.02126 c -0.565244,0.01176 -2.325621,0.05764 -3.9119497,0.102095 -4.7596493,0.133372 -4.5584159,0.129456 -4.5584159,0.0889 0,-0.06098 0.3194274,-0.152076 3.9616775,-1.1296962 1.2216559,-0.327909 2.8701451,-0.771046 3.6633081,-0.984752 l 1.442117,-0.388558 0.364674,0.03678 c 0.300447,0.03031 6.187694,0.742638 10.078243,1.219422 0.552202,0.06767 1.039021,0.11127 1.143749,0.102423 0.122678,-0.01042 0.567478,-0.156332 1.359234,-0.446057 0.647295,-0.236864 1.378301,-0.503688 1.624456,-0.592943 0.432194,-0.156712 0.447334,-0.165405 0.441219,-0.253264 -0.0038,-0.05325 -0.119923,-0.25222 -0.280267,-0.479831 -0.922279,-1.309205 -2.345312,-3.296678 -2.455099,-3.428913 -0.172257,-0.207478 -0.31355,-0.289416 -0.564125,-0.327143 -0.114562,-0.01726 -3.117396,-0.307341 -6.672962,-0.644652 -3.555564,-0.337308 -6.874919,-0.6523 -7.376344,-0.699984 -0.796365,-0.07573 -0.945232,-0.08173 -1.1769014,-0.04736 -0.1458702,0.02162 -1.8987873,0.300006 -3.8953735,0.61862 -5.5358302,0.8834 -5.83477231,0.926947 -5.83477231,0.84993 0,-0.04054 0.10717323,-0.09708 0.589392,-0.31078 C 1.3411487,3.5829258 8.2732982,0.61036479 8.9446752,0.33188379 l 0.5642573,-0.234039 h 0.4112634 c 0.2261951,0 2.1851671,0.05943 4.3532721,0.132061 2.168105,0.07264 5.776979,0.191397 8.019718,0.263922 2.242742,0.07253 4.26419,0.147744 4.492113,0.167152 0.22792,0.0194 0.839576,0.108142 1.359235,0.197149 2.651307,0.45419201 7.512472,1.30690001 7.774013,1.36365501 l 0.298205,0.06473 1.707498,1.138709 c 1.60962,1.073439 2.128078,1.441054 2.168701,1.537717 0.01267,0.0298 -0.02656,0.04128 -0.139016,0.04088 -0.692142,-0.0026 -1.921977,0.04371 -2.261586,0.08491 -1.417617,0.172003 -3.025449,0.740741 -4.187303,1.481171 -0.806446,0.513936 -1.191375,0.824595 -1.898035,1.531822 -1.027501,1.028322 -1.739431,2.1069682 -2.266286,3.4336512 -0.373795,0.941264 -0.572487,1.714083 -0.686124,2.668712 -0.03038,0.255273 -0.07181,0.47509 -0.09202,0.488488 -0.02023,0.01356 -0.395765,0.02457 -0.834522,0.02486 l -0.797735,4.9e-4 z"
     id="path3756"
     inkscape:connector-curvature="0" />
  <path
     style="fill:#eeeeee;fill-opacity:1;stroke:#eeeeee;stroke-width:0.19568959;stroke-linecap:square;stroke-linejoin:round;stroke-miterlimit:4;stroke-dasharray:none;stroke-opacity:1"
     d="m 28.442903,19.679638 c -0.209688,-0.115352 -0.677602,-0.375294 -1.03981,-0.577631 -0.362205,-0.202338 -0.72771,-0.384076 -0.812228,-0.403862 -0.22131,-0.05181 -2.090355,-0.09627 -5.656914,-0.134564 -1.713967,-0.01839 -4.38437,-0.04822 -5.934231,-0.06629 -1.54986,-0.01805 -3.030517,-0.03291 -3.290346,-0.03302 -0.286191,-1.96e-4 -0.472418,-0.01311 -0.472418,-0.03266 0,-0.01786 0.06021,-0.0632 0.133818,-0.10074 0.174606,-0.08908 2.781588,-1.150033 2.885882,-1.174461 0.04401,-0.01027 1.72851,-0.153123 3.74333,-0.317367 2.014821,-0.164245 4.476364,-0.365255 5.470099,-0.446688 1.783438,-0.146136 2.967536,-0.206409 4.392657,-0.223555 l 0.729347,-0.0089 0.02644,0.21549 c 0.107546,0.876815 0.342453,1.926948 0.561518,2.510164 l 0.113994,0.303519 -0.140699,0.270216 c -0.12804,0.245889 -0.261097,0.43044 -0.310103,0.430091 -0.01057,0 -0.190651,-0.09452 -0.400336,-0.209883 z"
     id="path3758"
     inkscape:connector-curvature="0" />
  <path
     style="fill:#eeeeee;fill-opacity:1;stroke:#eeeeee;stroke-width:0.19568959;stroke-linecap:square;stroke-linejoin:round;stroke-miterlimit:4;stroke-dasharray:none;stroke-opacity:1;paint-order:fill markers stroke"
     d="m 38.322234,23.898182 c -0.347612,-0.02952 -1.140873,-0.168613 -1.425543,-0.249947 -0.401042,-0.114576 -1.102958,-0.397304 -1.558146,-0.627599 -1.752122,-0.88644 -3.282017,-2.559952 -4.00944,-4.385821 -0.333198,-0.836347 -0.565552,-1.817389 -0.565552,-2.38786 v -0.169794 h 0.672985 c 0.727693,0 0.752554,0.0058 0.752554,0.176514 0,0.195268 0.172939,0.94612 0.319688,1.387992 0.259419,0.781148 0.661297,1.533533 1.156466,2.165107 0.242753,0.309625 0.971948,1.032711 1.258895,1.248347 0.83548,0.627845 1.758326,1.051584 2.851084,1.309111 0.391476,0.09227 0.41423,0.09376 1.425539,0.09423 0.957054,4.62e-4 1.051652,-0.0047 1.375812,-0.07708 1.141164,-0.254209 2.240083,-0.773208 3.089052,-1.458898 0.52219,-0.421761 1.206262,-1.208406 1.564235,-1.798782 0.23976,-0.395422 0.533741,-1.035725 0.682863,-1.487307 0.140893,-0.426624 0.299709,-1.133215 0.299709,-1.333305 0,-0.22726 0.0041,-0.228419 0.762577,-0.218372 l 0.679542,0.0091 -0.0086,0.248644 c -0.02704,0.783833 -0.380801,2.016722 -0.835809,2.912831 -1.074623,2.116387 -2.964549,3.699781 -5.189299,4.347636 -0.666686,0.194139 -1.101855,0.263943 -1.856518,0.297797 -0.79169,0.03551 -0.99919,0.03515 -1.442116,-0.0026 z"
     id="path3760"
     inkscape:connector-curvature="0" />
  <path
     style="fill:#eeeeee;fill-opacity:1;stroke:#eeeeee;stroke-width:0.19568959;stroke-linecap:square;stroke-linejoin:round;stroke-miterlimit:4;stroke-dasharray:none;stroke-opacity:1"
     d="m 46.487999,14.660198 -0.238295,-0.01147 -0.03705,-0.189214 c -0.255287,-1.303598 -0.558883,-2.084639 -1.155308,-2.972208 -0.361834,-0.53846 -0.6047,-0.819894 -1.088724,-1.261622 -0.673073,-0.6142602 -1.492443,-1.1243022 -2.264871,-1.4098412 -0.427832,-0.158154 -1.238909,-0.355737 -1.621442,-0.394991 -0.433766,-0.04451 -1.273261,-0.04501 -1.737101,-9.93e-4 -0.383295,0.03636 -1.045425,0.193581 -1.531395,0.363649 -0.47013,0.16453 -1.07397,0.476178 -1.577075,0.813951 l -0.462998,0.310844 -0.223164,-0.192264 c -0.122753,-0.105754 -0.34974,-0.331025 -0.504441,-0.500611 l -0.281273,-0.308338 0.165241,-0.147507 c 0.09088,-0.08112 0.3595,-0.276739 0.596929,-0.434685 1.03642,-0.689462 2.188836,-1.129154 3.447109,-1.315207 0.397618,-0.0588 1.941623,-0.06805 2.371247,-0.0143 1.489114,0.186606 2.961948,0.816077 4.159721,1.777824 0.367159,0.294809 1.096077,1.026703 1.380521,1.3861532 0.668439,0.844708 1.19259,1.867964 1.501707,2.931669 0.11258,0.387368 0.240583,1.071475 0.257877,1.378104 l 0.0094,0.165761 -0.198913,0.02125 c -0.206518,0.02207 -0.557866,0.02351 -0.96764,0.0039 z"
     id="path3762"
     inkscape:connector-curvature="0" />
</svg>
